<?xml version="1.0" standalone="no"?><!DOCTYPE svg PUBLIC "-//W3C//DTD SVG 1.1//EN" "http://www.w3.org/Graphics/SVG/1.1/DTD/svg11.dtd"><svg t="1624520567015" class="icon" viewBox="0 0 1024 1024" version="1.1" xmlns="http://www.w3.org/2000/svg" p-id="5069" xmlns:xlink="http://www.w3.org/1999/xlink" width="200" height="200"><defs><style type="text/css"></style></defs><path d="M511.720533 772.285867l171.025067-47.415467L720.821333 298.666667H303.172267l37.994666 426.274133 170.5536 47.345067zM673.1584 354.133333l-6.788267 69.6256L544.232533 486.4h115.9872l-19.291733 198.421333L512 717.7856l-128.928-33.501867L373.431467 584.533333h74.1056l6.702933 49.986134 57.809067 16.727466 64.4096-16.245333L584.539733 552.533333h-214.4l-4.561066-47.272533 37.7344-18.986667L533.154133 420.266667h-175.8528l-6.459733-66.133334h322.3168z" fill="#29ABE2" p-id="5070"></path><path d="M512 0C229.2288 0 0 229.230933 0 512c0 282.7712 229.2288 512 512 512s512-229.2288 512-512C1024 229.230933 794.7712 0 512 0zM228.266667 381.866667H206.788267c-12.928 0-19.054933 6.536533-19.054934 21.3056v68.2112c0 20.541867-9.922133 34.971733-29.7792 43.2832C177.8112 521.821867 187.733333 536.2496 187.733333 557.947733v67.8656c0 15.003733 6.126933 22.72 19.054934 22.72H228.266667v27.733334H200.5504c-15.234133 0-27.1104-4.9152-35.421867-14.837334-7.616-9.002667-11.528533-21.303467-11.528533-36.996266V559.68c0-10.165333-2.0928-17.5488-6.481067-22.1632C142.506667 532.439467 134.4 529.5552 121.6 528.866133v-28.3968c12.8-0.693333 21.252267-3.697067 25.864533-9.002666C151.618133 487.080533 153.6 479.808 153.6 469.653333v-65.096533c0-15.4624 3.912533-28.183467 11.528533-37.188267 8.544-9.92 20.418133-15.370667 35.421867-15.370666H228.266667V381.866667z m493.879466 386.299733l-210.487466 58.570667-209.924267-58.581334L254.990933 243.2h514.020267l-46.865067 524.9664zM902.4 500.471467v28.3968c-12.8 0.689067-21.250133 3.694933-25.864533 9.000533-4.1536 4.388267-6.135467 11.658667-6.135467 21.815467v65.0944c0 15.4624-3.912533 27.652267-11.528533 36.654933-8.544 9.922133-20.418133 14.837333-35.421867 14.837333H795.733333v-27.733333h21.4784c12.928 0 19.054933-7.598933 19.054934-22.370133v-68.213334c0-20.541867 9.922133-34.971733 29.7792-43.281066-19.857067-7.157333-29.7792-21.5872-29.7792-43.287467V403.52c0-15.0016-6.126933-21.653333-19.054934-21.653333H795.733333v-29.866667h27.716267c15.234133 0 27.1104 5.450667 35.421867 15.3728 7.616 9.002667 11.528533 21.8368 11.528533 37.531733v64.750934c0 10.161067 2.0928 17.546667 6.481067 22.161066 4.6144 5.079467 12.718933 7.9616 25.518933 8.654934z" fill="#29ABE2" p-id="5071"></path></svg>