<svg width="218" height="48" viewBox="0 0 218 48" fill="none" xmlns="http://www.w3.org/2000/svg">
<path fill-rule="evenodd" clip-rule="evenodd" d="M147.331 29.3087C147.331 30.4052 146.336 31.6651 143.862 31.6651C140.887 31.6651 139.323 30.3134 138.039 28.8914L134.614 32.2577C136.28 34.1369 139.224 36 144.067 36C151.014 36 153.739 32.1406 153.739 28.6051C153.739 23.8969 149.388 22.4843 145.848 21.3351C143.421 20.5473 141.376 19.8834 141.376 18.3663C141.376 17.0164 142.381 16.2369 144.118 16.2369C146.49 16.2369 148.115 17.2681 149.377 18.4783L152.777 15.1538C151.485 13.8847 148.476 12 144.419 12C137.624 12 135.363 16.5847 135.363 19.0904C135.363 23.787 139.45 25.0955 142.847 26.1832C145.263 26.9568 147.331 27.6187 147.331 29.3087ZM64 12.1938V35.4511H69.1865L69.2005 24.3451L75.1439 29.8981L81.1715 24.3451V35.4511H86.3579V12.1938C85.7004 12.1938 85.2739 12.5979 84.7459 13.1084L75.1439 22.0586L65.5419 13.1084C64.9422 12.5134 64.5069 12.1938 64 12.1938ZM98.8404 13.211C99.1832 12.503 99.3329 12.1938 99.8276 12.1938C100.238 12.1938 100.458 12.5371 100.866 13.3697L111.127 35.4511H104.623L103.515 32.838H95.1328L94.0254 35.4511H88.4885L98.7634 13.3697C98.7902 13.3147 98.8158 13.2618 98.8404 13.211ZM101.735 28.7875L99.3241 23.2738L96.9132 28.7875H101.735ZM113.272 12.4551V35.4511H119.159V26.8276H120.631C123.112 26.8276 124.119 27.6245 124.973 29.7514C125.984 32.2466 126.348 33.9752 126.651 35.4151L126.658 35.4511H133.311L131.284 29.9634C130.472 27.7437 129.422 25.9844 127.499 24.7878C129.067 24.1756 130.874 22.0985 130.874 19.2654C130.874 14.8152 127.115 12.4551 122.313 12.4551H113.272ZM119.159 16.5055H120.911C123.663 16.5055 124.906 17.7041 124.906 19.613C124.906 21.4938 123.497 22.6465 121.332 22.6465H119.159V16.5055Z" fill="#97A7B9"/>
</svg>
