<?xml version="1.0" standalone="no"?><!DOCTYPE svg PUBLIC "-//W3C//DTD SVG 1.1//EN" "http://www.w3.org/Graphics/SVG/1.1/DTD/svg11.dtd"><svg t="1624521938543" class="icon" viewBox="0 0 2118 1024" version="1.1" xmlns="http://www.w3.org/2000/svg" p-id="14238" width="99.28125" height="48" xmlns:xlink="http://www.w3.org/1999/xlink"><defs><style type="text/css"></style></defs><path d="M330.815038 660.11683s89.424598 74.29378 141.66045 116.798193c0 0 5.441235 4.185565 9.103604 0 0 0 46.041216-44.325134 55.877293-42.504413 0 0 2.825256-0.418557-1.234742 7.910718 0 0-9.501233 19.818651-44.346061 58.283994 0 0-11.112675 12.138139-23.648443 1.213814 0 0-144.653129-121.674376-150.680342-126.529632 0 0-8.078141-7.282883-1.611443-15.381952-0.062783 0 6.027214-6.466698 14.879684 0.209278zM207.61293 660.11683s-89.424598 74.29378-141.660449 116.798193c0 0-5.462162 4.185565-9.103604 0 0 0-46.041216-44.325134-55.877294-42.504413 0 0-2.846184-0.418557 1.213814 7.910718 0 0 9.501233 19.818651 44.346062 58.283994 0 0 11.112675 12.138139 23.690298 1.213814 0 0 144.632201-121.674376 150.680342-126.529632 0 0 8.099068-7.282883 1.632371-15.381952 0.020928 0-6.069069-6.466698-14.92154 0.209278zM311.959067 519.586483s10.087212-10.233707 89.738515-48.468843a4.897111 4.897111 0 0 1 6.487626 1.63237s24.799473 28.126997 53.826367 26.682977a8.768759 8.768759 0 0 0 7.11546-5.776079c3.85072-9.668655-22.664835-20.927825-22.664834-20.927826a17.181745 17.181745 0 0 1-10.861542-17.391023 13.85422 13.85422 0 0 0-4.478554-11.866077c-9.396594-7.471234-40.746476 12.556695-40.746476 12.556696-47.338741 25.259885-86.097073 47.841009-86.097074 47.841008s-10.694119 5.022678-6.278347 13.456592c-0.041856-0.146495 3.36938 7.492161 13.958859 2.260205zM228.289622 522.934935s-10.735974-9.584944-92.626555-42.692763a4.876183 4.876183 0 0 0-6.278348 2.092782s-23.020608 29.654728-52.047501 30.052357a8.831542 8.831542 0 0 1-7.471234-5.336595c-4.457627-9.396594 21.304526-22.434629 21.304526-22.434629a17.139889 17.139889 0 0 0 9.710511-18.039785 13.896076 13.896076 0 0 1 3.725153-12.117211c8.894326-8.057213 41.47895 9.898861 41.47895 9.898861 48.866472 22.204423 88.943258 42.316063 88.943257 42.316063s10.987108 4.33206 7.178244 13.017107c-0.083711-0.062783-2.950823 7.70144-13.917003 3.243813z" fill="#3E3A39" p-id="14239"></path><path d="M347.117814 646.785806c0 60.481415-35.577303 109.51531-79.525736 109.515309s-79.525736-49.033895-79.525737-109.515309 35.577303-109.51531 79.525737-109.51531 79.525736 49.033895 79.525736 109.51531z" fill="#1677FF" p-id="14240"></path><path d="M316.019065 498.093607c0 30.094213-21.199887 54.412346-47.359668 54.412345s-47.380597-24.380917-47.380597-54.412345 21.220815-54.412346 47.380597-54.412346S316.019065 468.104033 316.019065 498.093607z" fill="#1677FF" p-id="14241"></path><path d="M154.560893 216.86549c-2.532267-37.14689 1.967216-105.162322 52.884615-173.70095l6.15278 9.668655s-43.446165 54.412346-40.558125 148.378281c0.272062 9.040821-17.265456 33.735654-18.47927 15.654014z" fill="#3E3A39" p-id="14242"></path><path d="M260.05806 7.147752c9.14546 10.694119 4.666905 29.550089-9.982572 42.085857s-33.965861 14.021643-43.11132 3.306596S202.276335 23.031972 216.967668 10.475276s33.944933-14.021643 43.090392-3.327524zM317.191024 217.074768s38.59091-96.791192 160.202502-133.100969l-0.85804 11.405665S395.544802 116.579351 340.274415 213.851883z" fill="#3E3A39" p-id="14243"></path><path d="M543.065042 85.543386c0.941752 14.042571-13.896076 26.452771-33.149675 27.750296s-35.577303-9.082676-36.560911-23.125247 13.917004-26.452771 33.10782-27.750296 35.681942 9.082676 36.602766 23.125247zM257.776928 256.293513a36.498127 36.498127 0 0 0-33.484521 39.323384s0 3.348452 4.897111 2.971751 30.88947-6.759688 64.373991-5.252884a3.411236 3.411236 0 0 0 3.390308-3.620514 36.435344 36.435344 0 0 0-39.176889-33.421737z" fill="#3E3A39" p-id="14244"></path><path d="M433.591588 302.292873c-13.540303-157.795803-153.505599-100.348922-190.757128-163.237038C197.462935 208.557143 93.535354 182.083444 88.240615 303.674109c-4.918039 113.449741 76.88883 155.619309 176.275072 150.21993 112.696339-6.027214 176.484351-64.897186 169.075901-151.601166z m-78.856046 68.810689c-43.676371 26.348132-116.756337 38.758333-183.99744 14.649478-11.698654-4.185565-9.124532-21.032464 6.906182-16.532982 45.120391 12.661334 106.501703 18.835043 167.422603-12.996179 14.33556-7.429378 21.451021 7.785151 9.668655 14.879683z m-97.314388-20.027928c-130.547774 6.152781-123.474169-67.910793-123.474169-67.910794 2.092783-71.154606 114.705411-71.573163 114.705411-71.573162s131.405815-10.463913 132.41035 65.650588c0.041856 0 5.985358 67.868938-123.641592 73.833368z" fill="#1677FF" p-id="14245"></path><path d="M633.180258 577.117075l-40.055857 88.671196h17.621228l12.075356-26.410916h33.29617l11.698654 26.410916h17.558446l-39.386168-88.671196z m-3.767008 47.966576l0.292989-0.627835c3.536802-7.785151 6.529482-14.314633 9.480305-20.927825l0.418557-0.899897 10.108139 22.497412zM943.477124 604.197681a11.92886 11.92886 0 0 1 3.453091-9.229171 12.765973 12.765973 0 0 1 8.66412-2.825256h33.798438v-14.189066h-33.798438c-8.496697 0-15.654013 2.364844-20.739475 6.92711a24.63205 24.63205 0 0 0-7.743295 19.316383v61.59059h16.407415v-36.916684h46.815545v-14.209993h-46.857401zM1529.246955 577.117075l-40.076785 88.671196H1506.812326l12.054428-26.410916h33.29617l11.74051 26.410916h17.495662l-39.344312-88.671196z m-3.829792 47.966576l0.29299-0.627835q4.771544-10.463913 9.501232-20.927825l0.439485-0.899897 10.087212 22.497412zM1614.862689 645.132507V577.619343h-16.512055v67.617803c0 21.723083 20.299991 21.723083 26.975967 21.723083h33.840294v-14.230921h-33.840294c-8.831542-0.104639-10.463913-2.720617-10.463912-7.596801zM765.088341 580.779444c0 9.919789 0 20.676691-0.125567 33.714727v24.066999l-47.380596-61.339456h-13.582159v88.566557h16.637621l-0.125567-48.615338v-10.631336l0.837113 1.067319 45.015753 58.179355h15.235456V577.619343h-16.428342zM803.951313 593.629129h29.591945v72.263781h16.428343v-72.263781h30.240707v-14.189065h-76.260995v14.189065zM1191.053298 577.117075L1151.039296 665.788271h17.663084l12.054428-26.410916h33.275242l11.698654 26.410916H1243.121727l-39.344311-88.671196z m-3.85072 47.966576l0.313917-0.648763c3.243813-7.136388 6.487626-14.189066 9.543089-20.927825l0.397628-0.899897 10.087212 22.476485zM1013.103999 578.665734h16.470199v87.101609h-16.470199zM1425.675148 652.080545c-5.127317 0.334845-10.861541 0.711546-16.742261 0.711546-13.979787 0-21.995144-2.092783-24.464627-6.675976a50.226781 50.226781 0 0 1-4.541339-22.70669 58.472344 58.472344 0 0 1 3.871648-21.869578c2.846184-5.96443 10.819686-8.831542 24.569267-8.831542 5.29474 0 11.321954 0.272062 17.935146 0.816185l4.792472 0.502268v-14.398344l-3.26474-0.272062c-7.366595-0.544123-13.540303-0.795257-19.421022-0.795257-13.791437 0-32.919469 1.799793-39.888435 17.663085a66.027289 66.027289 0 0 0-5.169173 27.206172 68.015432 68.015432 0 0 0 6.278347 28.712977c5.399379 10.170923 17.872363 14.879684 39.302456 14.879684 5.629585 0 11.614943-0.355773 16.993395-0.690619l5.231956-0.272061v-14.356489zM1322.814886 580.779444V639.021582l-47.422452-61.799868h-13.644942v88.566557h16.595765v-3.097318-32.961325-23.188031l45.81101 59.204818H1339.389724V577.619343h-16.491127zM1115.943333 580.779444v13.917004l-0.104639 44.325134-47.380597-61.799868H1054.771299v88.566557h16.742261v-3.097318-38.381632-17.767724l45.811009 59.204818h15.256385V577.619343h-16.449271zM1454.492763 578.665734h16.512054v87.059753H1454.492763zM1075.594486 353.963674l-8.768759-62.971827h-22.225351l8.810615 62.971827h22.183495zM811.820175 317.486474l-2.929895 81.367385h-61.904508c-4.185565 0-6.634121-1.506803-6.278347-5.10639L747.132267 330.671004h-21.36731l-6.278347 64.876258a20.299991 20.299991 0 0 0 6.278347 17.830508c4.583194 4.185565 9.752367 5.817935 18.562982 5.817935h74.377491c4.185565 0 6.278348 1.73701 6.278347 5.169173v33.610087h-109.431598l4.185565 20.509269h105.329745v39.616374c0 3.976287-1.820721 5.985358-5.357524 5.985358H731.645676l4.352988 20.509268h85.678517c8.601336 0 14.502983-1.883504 18.562981-6.069069s6.048142-9.396594 6.048141-17.830507v-98.360779c0-8.245563-2.092783-13.917004-6.278347-17.809579a19.818651 19.818651 0 0 0-9.794222-4.792472l2.929895-84.21357c0-8.37113-2.092783-13.937932-6.278347-17.872362s-9.794222-5.817935-18.583909-5.817936h-97.000471v20.530197h94.321709c4.122782 0.020928 6.215564 1.695154 6.215564 5.127317zM1609.358671 505.983397c9.082676 12.431128 19.379166 25.511019 31.056892 38.758332h28.168853s-21.974217-24.799473-45.936576-58.325849c13.875148-20.927825 33.065964-51.335956 37.670085-66.40399 3.348452-10.861541-2.532267-24.548339-18.018857-24.548339h-90.031505v-77.642232c0-3.453091 2.092783-5.169173 6.278348-5.169173h66.969041c4.185565 0 6.278348 1.716082 6.278347 5.169173v31.831223c0 3.955359-1.799793 5.985358-5.399379 5.985358h-41.85565v20.530196h43.948433c8.580408 0 14.461127-1.904432 18.562981-6.069069s6.027214-9.417521 6.027214-17.851435v-36.393488c0-8.245563-2.092783-13.958859-6.278348-17.851435s-9.794222-5.838863-18.604837-5.838864h-72.36842c-8.789687 0-14.000715 1.653298-18.583909 5.838864-4.185565 3.85072-6.278348 9.396594-6.278347 17.349167a0.439484 0.439484 0 0 0 0 0.146495v229.22247h21.346382v-130.212929h79.944292c2.825256 0 4.708761 2.678762 3.557731 6.027214-3.787936 10.96618-16.093498 31.098748-26.243493 46.794617a469.097205 469.097205 0 0 1-24.611123-41.060393h-23.878649c0.585979 1.590515 12.305561 26.955039 35.179675 61.025539l-1.527731 2.092782c-16.532982 23.77401-32.207923 46.982968-39.302456 55.228531h26.55741c10.129067-12.096283 17.956074-25.720297 25.762153-36.37256zM1156.10383 544.720801h233.135974v-20.488341h-44.492557l6.215564-48.8874H1327.87942l-6.215564 48.8874h-38.40256v-75.089037h90.826762v-20.488341h-90.826762v-45.392453h63.704301v-20.551124h-149.487457v20.551124h63.704301v45.392453h-90.868618v20.488341h90.868618v75.089037h-38.800189l-6.215564-48.8874H1193.104225l6.215564 48.8874h-43.215959v20.488341z" fill="#3E3A39" p-id="14246"></path><path d="M1237.178225 292.352156h-5.985358c-14.649478 0-24.945968 5.901647-33.484521 18.207208-10.338346 15.005251-37.251529 57.55152-47.485235 72.703265h29.298955c9.543088-14.000715 31.056893-48.133998 41.227816-63.536878 3.578658-5.48309 6.885255-6.906182 17.265456-6.906182h68.078216c10.463913 0 13.66587 1.423092 17.265456 6.906182 10.149995 15.444735 31.6638 49.536163 41.248743 63.536878h29.298956c-10.233707-15.151746-37.167818-57.698014-47.464308-72.703265-8.475769-12.305561-18.835043-18.207208-33.484521-18.207208h-75.779655zM721.704959 544.720801l-10.798758-56.505128h-21.576587l4.750616 24.862256-34.196067 1.92536v-55.354098h17.411951c8.810614 0 14.000715-1.63237 18.604837-5.797007 4.185565-3.976287 6.278348-9.647727 6.278347-17.851435V341.134917c0-8.224635-2.092783-13.896076-6.278347-17.872363-4.604122-4.185565-9.794222-5.817935-18.604837-5.817936h-17.411951V290.908136h-21.346382v26.36906h-17.41195c-8.768759 0-14.000715 1.63237-18.562981 5.817935s-6.278348 9.605872-6.278348 17.872363v94.949544c0 8.224635 1.988143 13.917004 6.278348 17.851435s9.794222 5.797008 18.562981 5.797007h17.41195v56.505129L591.261824 519.021432v20.530197l106.731909-6.027214 2.092783 11.301026z m-61.820796-206.892481h14.649478c4.185565 0 6.278348 1.73701 6.278348 5.148245v91.056968c0 3.411236-2.092783 5.169173-6.278348 5.169173h-14.649478z m-21.346382 101.374386h-14.649477c-4.185565 0-6.278348-1.757937-6.278348-5.169173v-91.056968c0-3.411236 2.092783-5.148245 6.278348-5.148245h14.649477zM1495.302022 518.226175c0 3.976287-1.799793 5.985358-5.357523 5.985358h-26.515554v20.509268h28.545553c8.559481 0 14.482055-1.883504 18.562981-6.069069s6.027214-9.396594 6.027214-17.830507v-206.13908c0-8.245563-2.092783-13.958859-6.278348-17.851435S1500.533979 290.908136 1491.681509 290.908136h-42.671836c-8.810614 0-14.000715 1.674226-18.583909 5.838863s-6.278348 9.605872-6.278348 17.851435V489.722476c0 40.265136-7.241028 53.554305-8.057212 55.019253h20.488341c0.878969 0 8.915254-4.708761 8.915253-55.019253v-27.980502h49.808224z m-49.829152-201.576814c0-3.453091 2.092783-5.190101 6.278348-5.190101h37.293385c4.185565 0 6.278348 1.73701 6.278347 5.190101v45.204103h-49.85008z m0 124.897262v-59.497808h49.829152V441.588478zM1018.022038 544.720801s16.74226-24.945968 42.797403-63.285743c25.992359 38.339776 42.797403 63.285744 42.797403 63.285743h24.736689l-54.412346-83.188105a352.780352 352.780352 0 0 0 26.599266-49.640802c21.451021-49.787296 23.627515-109.578093 23.627515-112.131288h-21.74401c0 0.565051-2.092783 57.488736-21.681227 102.692839a316.407791 316.407791 0 0 1-19.92329 38.423487 316.407791 316.407791 0 0 1-19.92329-38.423487c-19.483805-45.204103-21.702155-102.127788-21.702155-102.692839h-21.785866c0 2.553195 2.092783 62.343992 23.627515 112.131288a350.562002 350.562002 0 0 0 26.578338 49.640802l-54.412346 83.188105zM960.051962 488.236601l4.918039 25.762153-18.835043 1.067319v-55.416882h17.432879c8.768759 0 13.979787-1.63237 18.562981-5.797007s6.278348-9.647727 6.278347-17.851435V341.134917c0-8.224635-2.092783-13.896076-6.278347-17.872363s-9.794222-5.817935-18.562981-5.817936h-17.432879V290.908136h-21.346382v26.36906h-17.41195c-8.789687 0-14.000715 1.63237-18.583909 5.817935s-6.278348 9.605872-6.278348 17.872363v94.949544c0 8.224635 2.092783 13.917004 6.278348 17.851435s9.794222 5.797008 18.583909 5.797007h17.41195v56.609768L877.533547 519.021432v20.530197l91.433669-5.211029 1.988143 10.463913h21.55566l-10.77783-56.505129z m-13.917004-150.408281h14.649478c4.185565 0 6.278348 1.73701 6.278347 5.148245v91.056968c0 3.411236-2.092783 5.169173-6.278347 5.169173h-14.649478z m-36.079571 101.374386c-4.185565 0-6.278348-1.757937-6.278347-5.169173v-91.056968c0-3.411236 2.092783-5.148245 6.278347-5.148245h14.649478v101.374386z" fill="#3E3A39" p-id="14247"></path></svg>